
<svg xmlns="http://www.w3.org/2000/svg" xmlns:xlink="http://www.w3.org/1999/xlink" version="1.1" width="3162.175444344336" 
height="592.1860922270457" viewBox="0 0 3162.175444344336 592.1860922270457">
	
	<g transform="scale(8.108772217216808) translate(10, 10)">
		<defs id="SvgjsDefs1378"><linearGradient id="SvgjsLinearGradient1383"><stop id="SvgjsStop1384" stop-color="#00ff8f" offset="0"></stop><stop id="SvgjsStop1385" stop-color="#00a1ff" offset="1"></stop></linearGradient><linearGradient id="SvgjsLinearGradient1386"><stop id="SvgjsStop1387" stop-color="#00ff8f" offset="0"></stop><stop id="SvgjsStop1388" stop-color="#00a1ff" offset="1"></stop></linearGradient></defs><g id="SvgjsG1379" featureKey="symbolFeature-0" transform="matrix(0.9143155694879834,0,0,0.9143155694879834,-2.7429467084639505,-2.7429467084639505)" fill="url(#SvgjsLinearGradient1383)"><g xmlns="http://www.w3.org/2000/svg"><path d="M3,17.414L17.414,3h18.768c-1.993,0.964-3.842,2.246-5.454,3.858L7.063,30.523C4.432,27.316,3,23.333,3,19.13V19V17.414z    M19,61h-1.586L3,46.586V27.818c0.964,1.994,2.246,3.842,3.858,5.455l23.665,23.665C27.316,59.569,23.333,61,19.13,61H19z    M61,46.586L46.586,61H27.818c1.993-0.964,3.842-2.246,5.454-3.858l23.665-23.665C59.568,36.684,61,40.667,61,44.87V45V46.586z    M57.142,30.728L33.477,7.063C36.684,4.431,40.667,3,44.87,3H45h1.586L61,17.414v18.768C60.036,34.188,58.754,32.34,57.142,30.728z   "></path></g></g><g id="SvgjsG1380" featureKey="nameFeature-0" transform="matrix(1.550269769781248,0,0,1.550269769781248,70.27152632880887,-13.61888791066428)" fill="url(#SvgjsLinearGradient1386)"><path d="M28.8 40 l-10 0 l-5.48 -9.96 l-2.6 0 l0 9.96 l-8.96 0 l0 -28.24 l15.28 0 c0.8 0 1.64 0.04 2.44 0.12 c1.24 0.12 4.84 0.44 6.88 3.84 c0.48 0.84 1.32 2.6 1.32 5.08 c0 2.68 -1.04 5.12 -3.32 6.64 c-0.6 0.4 -1.12 0.64 -2.48 1.16 z M18.76 20.96 c0 -0.68 -0.2 -1.44 -0.56 -2 c-0.28 -0.4 -0.68 -0.64 -0.84 -0.72 c-0.92 -0.52 -1.96 -0.56 -3 -0.56 l-3.64 0 l0 6.56 l3.72 0 c1.64 0 3.48 -0.2 4.12 -2.04 c0.04 -0.16 0.2 -0.68 0.2 -1.24 z M59.68 25.64 c0 1.72 -0.28 7.16 -4.32 11.2 c-4 4 -9.16 4.08 -10.96 4.08 s-7.04 -0.08 -10.92 -4.04 c-2.76 -2.76 -4.12 -6.88 -4.12 -11 c0 -1.88 0.32 -7.2 4.2 -11.08 c1.76 -1.72 5.12 -4.08 11 -4.08 c1.84 0 6.84 0.04 10.76 3.88 c1.68 1.64 4.36 5.12 4.36 11.04 z M50.68 25.6 c0 -0.76 0.12 -5.04 -3 -6.92 c-1.28 -0.76 -2.6 -0.84 -3.12 -0.84 c-0.68 0 -2.72 0.12 -4.2 1.68 c-1 1.04 -2.04 3.04 -2.04 6.36 c0 0.52 -0.04 3.8 1.56 5.84 c0.52 0.64 1.12 1.12 1.88 1.48 c0.56 0.24 1.44 0.56 2.8 0.56 c1.68 0 3 -0.48 4.12 -1.76 c1.08 -1.16 2 -3 2 -6.4 z M82.4 40 l-19.84 0 l0 -28.24 l8.92 0 l0 21.12 l10.92 0 l0 7.12 z M104.08000000000001 40 l-19.84 0 l0 -28.24 l8.92 0 l0 21.12 l10.92 0 l0 7.12 z M133.12 25.759999999999998 c0 2.08 -0.28 3.64 -0.44 4.4 c-0.44 1.84 -1.88 7.48 -7.84 9.2 c-2.28 0.68 -4.84 0.64 -7.16 0.64 l-11.76 0 l0 -28.24 l9.6 0 c1.24 0 2.52 0.04 3.76 0.08 c3.76 0.16 7.2 0.52 10.04 3.24 c1.84 1.8 3.8 4.96 3.8 10.68 z M124.12 25.880000000000003 c0 -0.24 0.08 -5 -2.56 -6.72 c-0.84 -0.52 -1.52 -0.8 -3.32 -0.8 l-3.36 0 l0 15.16 l3.4 0 c0.96 0 1.72 -0.08 2.6 -0.52 c3.32 -1.6 3.24 -6.68 3.24 -7.12 z M159.48 40 l-23.56 0 l0 -28.24 l22.36 0 l0 6.2 l-13.4 0 l0 4.2 l12.52 0 l0 6.12 l-12.56 0 l0 5.6 l14.64 0 l0 6.12 z M193.32 40 l-10.52 0 l-6.16 -10.16 l-6.24 10.16 l-10.48 0 l10.92 -15.16 l-9.16 -13.08 l10.48 0 l4.48 7.76 l4.56 -7.76 l10.2 0 l-8.92 13.04 z"></path></g>
	</g>
</svg>
	