<svg width="775" height="821" viewBox="0 0 775 821" fill="none" xmlns="http://www.w3.org/2000/svg">
<g filter="url(#filter0_f_366_569)">
<path d="M815.061 410.506C815.061 477.255 769.964 537.824 696.756 581.749C623.564 625.664 522.397 652.853 410.609 652.853C298.82 652.853 197.653 625.664 124.461 581.749C51.2529 537.824 6.15592 477.255 6.15592 410.506C6.15592 343.756 51.2529 283.187 124.461 239.262C197.653 195.347 298.82 168.158 410.609 168.158C522.397 168.158 623.564 195.347 696.756 239.262C769.964 283.187 815.061 343.756 815.061 410.506Z" stroke="url(#paint0_linear_366_569)" stroke-width="1.62105"/>
</g>
<g filter="url(#filter1_f_366_569)">
<path d="M807.999 410.498C807.999 479.506 763.785 542.1 692.051 587.482C620.328 632.858 521.194 660.95 411.652 660.95C302.109 660.95 202.975 632.858 131.252 587.482C59.5189 542.1 15.3044 479.506 15.3044 410.498C15.3044 341.489 59.5189 278.895 131.252 233.513C202.975 188.137 302.109 160.045 411.652 160.045C521.194 160.045 620.328 188.137 692.051 233.513C763.785 278.895 807.999 341.489 807.999 410.498Z" stroke="url(#paint1_linear_366_569)" stroke-width="1.62105"/>
</g>
<g filter="url(#filter2_f_366_569)">
<path d="M799.789 410.505C799.789 481.772 756.458 546.392 686.199 593.232C615.944 640.068 518.843 669.063 411.546 669.063C304.25 669.063 207.148 640.068 136.894 593.232C66.6345 546.392 23.3044 481.772 23.3044 410.505C23.3044 339.238 66.6345 274.618 136.894 227.778C207.148 180.942 304.25 151.947 411.546 151.947C518.843 151.947 615.944 180.942 686.199 227.778C756.458 274.618 799.789 339.238 799.789 410.505Z" stroke="url(#paint2_linear_366_569)" stroke-width="1.62105"/>
</g>
<g filter="url(#filter3_f_366_569)">
<path d="M791.578 410.501C791.578 484.026 749.134 550.672 680.346 598.97C611.56 647.267 516.491 677.164 411.441 677.164C306.392 677.164 211.322 647.267 142.536 598.97C73.7483 550.672 31.3044 484.026 31.3044 410.501C31.3044 336.976 73.7483 270.33 142.536 222.032C211.322 173.736 306.392 143.838 411.441 143.838C516.491 143.838 611.56 173.736 680.346 222.032C749.134 270.33 791.578 336.976 791.578 410.501Z" stroke="url(#paint3_linear_366_569)" stroke-width="1.62105"/>
</g>
<g filter="url(#filter4_f_366_569)">
<path d="M783.36 410.509C783.36 486.29 741.804 554.964 674.486 604.721C607.168 654.477 514.13 685.277 411.328 685.277C308.526 685.277 215.489 654.477 148.171 604.721C80.8525 554.964 39.2965 486.29 39.2965 410.509C39.2965 334.727 80.8525 266.054 148.171 216.297C215.489 166.54 308.526 135.74 411.328 135.74C514.13 135.74 607.168 166.54 674.486 216.297C741.804 266.054 783.36 334.727 783.36 410.509Z" stroke="url(#paint4_linear_366_569)" stroke-width="1.62105"/>
</g>
<g filter="url(#filter5_f_366_569)">
<path d="M775.157 410.505C775.157 566.554 612.423 693.378 411.231 693.378C210.038 693.378 47.3044 566.554 47.3044 410.505C47.3044 254.455 210.038 127.631 411.231 127.631C612.423 127.631 775.157 254.455 775.157 410.505Z" stroke="url(#paint5_linear_366_569)" stroke-width="1.62105"/>
</g>
<g filter="url(#filter6_f_366_569)">
<path d="M766.946 410.5C766.946 571.059 607.8 701.479 411.125 701.479C214.451 701.479 55.3044 571.059 55.3044 410.5C55.3044 249.942 214.451 119.521 411.125 119.521C607.8 119.521 766.946 249.942 766.946 410.5Z" stroke="url(#paint6_linear_366_569)" stroke-width="1.62105"/>
</g>
<g filter="url(#filter7_f_366_569)">
<path d="M758.728 410.508C758.728 575.578 603.169 709.592 411.012 709.592C218.856 709.592 63.2965 575.578 63.2965 410.508C63.2965 245.438 218.856 111.424 411.012 111.424C603.169 111.424 758.728 245.438 758.728 410.508Z" stroke="url(#paint7_linear_366_569)" stroke-width="1.62105"/>
</g>
<g filter="url(#filter8_f_366_569)">
<path d="M750.518 410.504C750.518 580.086 598.547 717.693 410.907 717.693C223.267 717.693 71.2965 580.086 71.2965 410.504C71.2965 240.922 223.267 103.314 410.907 103.314C598.547 103.314 750.518 240.922 750.518 410.504Z" stroke="url(#paint8_linear_366_569)" stroke-width="1.62105"/>
</g>
<g filter="url(#filter9_f_366_569)">
<path d="M410.605 814.956C343.856 814.956 283.287 769.86 239.362 696.651C195.446 623.459 168.258 522.293 168.258 410.504C168.258 298.715 195.446 197.549 239.362 124.357C283.287 51.1482 343.856 6.05124 410.605 6.05124C477.355 6.05124 537.924 51.1482 581.849 124.357C625.764 197.549 652.953 298.715 652.953 410.504C652.953 522.293 625.764 623.459 581.849 696.651C537.924 769.86 477.355 814.956 410.605 814.956Z" stroke="url(#paint9_linear_366_569)" stroke-width="1.62105"/>
</g>
<g filter="url(#filter10_f_366_569)">
<path d="M410.613 807.894C341.604 807.894 279.011 763.68 233.628 691.947C188.253 620.224 160.161 521.09 160.161 411.547C160.161 302.004 188.253 202.87 233.628 131.147C279.011 59.4142 341.604 15.1997 410.613 15.1997C479.622 15.1997 542.216 59.4142 587.598 131.147C632.974 202.87 661.066 302.004 661.066 411.547C661.066 521.09 632.974 620.224 587.598 691.947C542.216 763.68 479.622 807.894 410.613 807.894Z" stroke="url(#paint10_linear_366_569)" stroke-width="1.62105"/>
</g>
<g filter="url(#filter11_f_366_569)">
<path d="M410.606 799.684C339.338 799.684 274.719 756.354 227.879 686.094C181.043 615.84 152.048 518.738 152.048 411.442C152.048 304.146 181.043 207.044 227.879 136.79C274.719 66.5298 339.338 23.1997 410.606 23.1997C481.873 23.1997 546.493 66.5299 593.332 136.79C640.169 207.044 669.164 304.146 669.164 411.442C669.164 518.738 640.169 615.84 593.332 686.094C546.493 756.354 481.873 799.684 410.606 799.684Z" stroke="url(#paint11_linear_366_569)" stroke-width="1.62105"/>
</g>
<g filter="url(#filter12_f_366_569)">
<path d="M410.61 791.473C337.085 791.473 270.439 749.029 222.141 680.241C173.844 611.455 143.947 516.386 143.947 411.337C143.947 306.287 173.844 211.218 222.141 142.432C270.439 73.6436 337.085 31.1997 410.61 31.1997C484.135 31.1997 550.781 73.6436 599.079 142.432C647.375 211.218 677.273 306.287 677.273 411.337C677.273 516.386 647.375 611.455 599.079 680.241C550.781 749.029 484.135 791.473 410.61 791.473Z" stroke="url(#paint12_linear_366_569)" stroke-width="1.62105"/>
</g>
<g filter="url(#filter13_f_366_569)">
<path d="M410.602 783.255C334.821 783.255 266.147 741.699 216.39 674.381C166.633 607.063 135.834 514.025 135.834 411.223C135.834 308.422 166.633 215.384 216.39 148.066C266.147 80.7478 334.821 39.1919 410.602 39.1919C486.384 39.1919 555.057 80.7478 604.814 148.066C654.571 215.384 685.371 308.422 685.371 411.223C685.371 514.025 654.571 607.063 604.814 674.381C555.057 741.699 486.384 783.255 410.602 783.255Z" stroke="url(#paint13_linear_366_569)" stroke-width="1.62105"/>
</g>
<g filter="url(#filter14_f_366_569)">
<path d="M410.606 775.052C254.557 775.052 127.733 612.318 127.733 411.126C127.733 209.934 254.557 47.1997 410.606 47.1997C566.655 47.1997 693.48 209.934 693.48 411.126C693.48 612.318 566.655 775.052 410.606 775.052Z" stroke="url(#paint14_linear_366_569)" stroke-width="1.62105"/>
</g>
<g filter="url(#filter15_f_366_569)">
<path d="M410.61 766.842C250.052 766.842 119.632 607.695 119.632 411.021C119.632 214.347 250.052 55.1997 410.61 55.1997C571.169 55.1997 701.589 214.347 701.589 411.021C701.589 607.695 571.169 766.842 410.61 766.842Z" stroke="url(#paint15_linear_366_569)" stroke-width="1.62105"/>
</g>
<g filter="url(#filter16_f_366_569)">
<path d="M410.603 758.623C245.533 758.623 111.519 603.064 111.519 410.908C111.519 218.751 245.533 63.1919 410.603 63.1919C575.672 63.1919 709.687 218.751 709.687 410.908C709.687 603.064 575.672 758.623 410.603 758.623Z" stroke="url(#paint16_linear_366_569)" stroke-width="1.62105"/>
</g>
<g filter="url(#filter17_f_366_569)">
<path d="M410.607 750.413C241.025 750.413 103.417 598.442 103.417 410.802C103.417 223.162 241.025 71.1919 410.607 71.1919C580.189 71.1919 717.796 223.162 717.796 410.802C717.796 598.442 580.189 750.413 410.607 750.413Z" stroke="url(#paint17_linear_366_569)" stroke-width="1.62105"/>
</g>
<path fill-rule="evenodd" clip-rule="evenodd" d="M253.383 149.673L254.383 148.673L350.469 148.673C359.019 148.673 367.327 150.207 375.203 153.009L376.039 153.845L375.865 154.314C367.795 151.318 359.259 149.673 350.469 149.673L253.383 149.673ZM250.046 153.01L251.046 152.01L353.258 152.01C362.001 152.01 370.498 153.549 378.552 156.359L379.377 157.183L379.206 157.653C370.961 154.656 362.239 153.01 353.258 153.01L250.046 153.01ZM246.799 156.348C247.111 156.013 247.426 155.679 247.743 155.348L356.047 155.348C364.669 155.348 373.057 156.58 381.03 158.837L382.506 160.312C374.099 157.753 365.206 156.348 356.047 156.348L246.799 156.348ZM244.399 159.018C244.689 158.683 244.982 158.35 245.278 158.018L358.278 158.018C367.37 158.018 376.205 159.564 384.579 162.385L385.384 163.191L385.219 163.662C376.659 160.664 367.603 159.018 358.278 159.018L244.399 159.018ZM241.626 162.356C241.892 162.021 242.161 161.687 242.432 161.356L361.067 161.356C370.352 161.356 379.375 162.905 387.926 165.732L388.722 166.528L388.56 167.001C379.824 164.003 370.584 162.356 361.067 162.356L241.626 162.356ZM239.576 165.026C239.824 164.691 240.075 164.358 240.327 164.026L363.856 164.026C373.31 164.026 382.496 165.789 391.201 169.008L392.059 169.866L391.88 170.332C382.974 166.907 373.555 165.026 363.856 165.026L239.576 165.026ZM237.205 168.363C237.433 168.029 237.662 167.695 237.894 167.363L367.203 167.363C376.515 167.363 385.574 168.998 394.186 171.992L395.851 173.657C386.746 170.24 377.118 168.363 367.203 168.363L237.205 168.363ZM235.033 171.701C235.241 171.366 235.451 171.033 235.664 170.701L368.876 170.701C378.701 170.701 388.249 172.259 397.295 175.102L398.067 175.874L397.913 176.349C388.687 173.349 378.928 171.701 368.876 171.701L235.033 171.701ZM233.428 174.371C233.621 174.037 233.817 173.703 234.015 173.371L372.223 173.371C381.89 173.371 391.293 175.018 400.229 178.035L401.859 179.666C392.441 176.248 382.48 174.371 372.223 174.371L233.428 174.371ZM231.577 177.709C231.754 177.374 231.933 177.041 232.114 176.709L375.012 176.709C384.875 176.709 394.469 178.362 403.585 181.391L405.197 183.004C395.605 179.586 385.459 177.709 375.012 177.709L231.577 177.709ZM229.89 181.046C230.051 180.712 230.214 180.379 230.379 180.046L377.8 180.046C387.86 180.046 397.644 181.706 406.94 184.746L408.535 186.342C398.769 182.923 388.439 181.046 377.8 181.046L229.89 181.046ZM228.652 183.716C228.801 183.382 228.951 183.049 229.104 182.716L380.032 182.716C390.248 182.716 400.184 184.381 409.623 187.429L411.206 189.012C401.3 185.594 390.822 183.716 380.032 183.716L228.652 183.716ZM227.237 187.054C227.372 186.72 227.508 186.386 227.646 186.054L382.82 186.054C393.232 186.054 403.358 187.725 412.976 190.783L414.544 192.35C404.464 188.932 393.801 187.054 382.82 187.054L227.237 187.054ZM225.965 190.392C226.085 190.057 226.207 189.724 226.331 189.392L385.609 189.392C396.216 189.392 406.532 191.068 416.329 194.136L417.882 195.688C407.627 192.269 396.78 190.392 385.609 190.392L225.965 190.392ZM225.044 193.062C225.154 192.728 225.266 192.394 225.379 192.062L387.84 192.062C398.935 192.062 409.714 194.069 419.925 197.732L420.763 198.569L420.589 199.038C410.183 195.18 399.176 193.062 387.84 193.062L225.044 193.062ZM224.012 196.399C224.109 196.065 224.208 195.732 224.308 195.399L390.629 195.399C401.587 195.399 412.243 197.085 422.362 200.169L423.891 201.697C413.322 198.277 402.143 196.399 390.629 196.399L224.012 196.399ZM223.108 199.737C223.192 199.403 223.278 199.07 223.366 198.737L393.418 198.737C404.571 198.737 415.416 200.427 425.713 203.52L427.229 205.035C416.486 201.615 405.122 199.737 393.418 199.737L223.108 199.737ZM222.473 202.407C222.547 202.073 222.624 201.74 222.701 201.407L395.649 201.407C407.284 201.407 418.588 203.423 429.295 207.101L430.108 207.915L429.941 208.386C419.046 204.527 407.52 202.407 395.649 202.407L222.473 202.407ZM221.788 205.745C221.85 205.411 221.915 205.077 221.98 204.745L398.996 204.745C410.501 204.745 421.688 206.643 432.31 210.116L433.902 211.708C422.81 207.859 411.078 205.745 398.996 205.745L221.788 205.745ZM221.324 208.415C221.378 208.081 221.433 207.748 221.489 207.415L401.895 207.415C413.515 207.415 424.816 209.513 435.547 213.353L437.237 215.043C426.006 210.764 414.127 208.415 401.895 208.415L221.324 208.415ZM220.85 211.752C220.891 211.419 220.935 211.085 220.98 210.752L404.016 210.752C415.872 210.752 427.399 212.66 438.343 216.15L439.91 217.716C428.505 213.867 416.441 211.752 404.016 211.752L220.85 211.752ZM220.556 214.379C220.572 214.217 220.588 214.055 220.605 213.893L406.306 213.893C418.665 213.893 430.672 216.002 442.044 219.851L442.85 220.656C431.241 216.614 418.957 214.393 406.304 214.393L220.556 214.393V214.379ZM372.701 150.508L372.547 150.983C364.646 148.414 356.288 147.003 347.68 147.003L256.053 147.003L256.056 147L360.276 147C364.248 147.631 368.141 148.553 371.931 149.737L372.701 150.508Z" fill="url(#paint18_linear_366_569)"/>
<path fill-rule="evenodd" clip-rule="evenodd" d="M370.122 486.327L369.122 487.327L273.531 487.327C265.089 487.327 256.882 485.831 249.095 483.096L248.013 482.014L248.135 481.686C256.205 484.682 264.741 486.327 273.531 486.327L370.122 486.327ZM373.46 482.99L372.46 483.99L270.742 483.99C262.105 483.99 253.709 482.488 245.743 479.744L244.675 478.676L244.794 478.347C253.039 481.344 261.761 482.99 270.742 482.99L373.46 482.99ZM376.728 479.652C376.413 479.987 376.096 480.321 375.776 480.652L267.953 480.652C259.428 480.652 251.131 479.448 243.238 477.239L241.77 475.771C250.096 478.277 258.895 479.652 267.953 479.652L376.728 479.652ZM379.151 476.982C378.858 477.317 378.562 477.65 378.264 477.982L265.722 477.982C256.735 477.982 247.999 476.472 239.711 473.712L238.666 472.667L238.781 472.338C247.341 475.336 256.397 476.982 265.722 476.982L379.151 476.982ZM381.948 473.644C381.68 473.979 381.409 474.313 381.136 474.644L262.933 474.644C253.752 474.644 244.827 473.13 236.361 470.362L235.327 469.328L235.441 468.999C244.176 471.998 253.416 473.644 262.933 473.644L381.948 473.644ZM384.017 470.974C383.767 471.309 383.514 471.642 383.259 471.974L260.144 471.974C250.801 471.974 241.719 470.252 233.103 467.104L231.994 465.995L232.12 465.668C241.026 469.093 250.445 470.974 260.144 470.974L384.017 470.974ZM386.409 467.637C386.179 467.971 385.948 468.305 385.714 468.637L256.797 468.637C247.591 468.637 238.632 467.039 230.109 464.11L228.456 462.457C237.47 465.802 246.994 467.637 256.797 467.637L386.409 467.637ZM388.601 464.299C388.391 464.634 388.179 464.967 387.965 465.299L255.124 465.299C245.4 465.299 235.948 463.773 226.985 460.986L225.98 459.981L226.087 459.651C235.313 462.651 245.072 464.299 255.124 464.299L388.601 464.299ZM390.221 461.629C390.026 461.963 389.828 462.297 389.628 462.629L251.777 462.629C242.215 462.629 232.911 461.017 224.061 458.062L222.442 456.443C231.771 459.792 241.629 461.629 251.777 461.629L390.221 461.629ZM392.089 458.291C391.911 458.626 391.73 458.959 391.547 459.291L248.988 459.291C239.229 459.291 229.733 457.672 220.703 454.704L219.101 453.102C228.605 456.453 238.649 458.291 248.988 458.291L392.089 458.291ZM393.793 454.954C393.63 455.288 393.466 455.621 393.299 455.954L246.2 455.954C236.243 455.954 226.556 454.327 217.346 451.347L215.76 449.761C225.439 453.114 235.669 454.954 246.2 454.954L393.793 454.954ZM395.043 452.284C394.893 452.618 394.741 452.951 394.586 453.284L243.968 453.284C233.855 453.284 224.015 451.652 214.661 448.662L213.087 447.088C222.907 450.443 233.285 452.284 243.968 452.284L395.043 452.284ZM396.473 448.946C396.337 449.28 396.199 449.614 396.06 449.946L241.18 449.946C230.87 449.946 220.84 448.308 211.305 445.306L209.747 443.748C219.741 447.104 230.304 448.946 241.18 448.946L396.473 448.946ZM397.76 445.609C397.638 445.943 397.514 446.276 397.389 446.609L238.391 446.609C227.885 446.609 217.665 444.964 207.951 441.952L206.406 440.407C216.576 443.766 227.324 445.609 238.391 445.609L397.76 445.609ZM398.691 442.938C398.58 443.272 398.467 443.606 398.352 443.938L236.16 443.938C225.174 443.938 214.497 441.97 204.374 438.375L203.289 437.29L203.411 436.962C213.817 440.82 224.824 442.938 236.16 442.938L398.691 442.938ZM399.736 439.601C399.638 439.935 399.538 440.268 399.437 440.601L233.371 440.601C222.513 440.601 211.951 438.946 201.914 435.915L200.394 434.395C210.878 437.756 221.96 439.601 233.371 439.601L399.736 439.601ZM400.654 436.263C400.569 436.597 400.481 436.93 400.392 437.263L230.582 437.263C219.528 437.263 208.777 435.603 198.562 432.563L197.053 431.054C207.713 434.418 218.981 436.263 230.582 436.263L400.654 436.263ZM401.299 433.593C401.223 433.927 401.146 434.26 401.067 434.593L228.351 434.593C216.822 434.593 205.618 432.613 194.998 428.999L193.942 427.943L194.059 427.614C204.954 431.473 216.48 433.593 228.351 433.593L401.299 433.593ZM401.996 430.256C401.933 430.589 401.867 430.923 401.8 431.256L225.004 431.255C213.602 431.255 202.513 429.391 191.976 425.977L190.393 424.394C201.397 428.179 213.029 430.255 225.004 430.255L401.996 430.256ZM402.469 427.585C402.415 427.919 402.359 428.253 402.301 428.585L222.105 428.585C210.592 428.585 199.394 426.526 188.753 422.754L187.073 421.074C198.213 425.279 209.985 427.585 222.105 427.585L402.469 427.585ZM402.956 424.248C402.913 424.582 402.868 424.915 402.822 425.248L219.984 425.248C208.23 425.248 196.799 423.373 185.939 419.94L184.38 418.381C195.7 422.169 207.665 424.248 219.984 424.248L402.956 424.248ZM181.239 415.083C192.777 419.073 204.979 421.264 217.545 421.264L403.295 421.264C403.267 421.545 403.238 421.826 403.208 422.107L217.694 422.107C205.44 422.107 193.532 420.033 182.246 416.247L181.199 415.2L181.239 415.083ZM251.346 485.347L251.453 485.017C257.092 486.851 262.964 488.095 268.994 488.656L261.724 488.656C258.54 488.069 255.411 487.295 252.349 486.35L251.346 485.347Z" fill="url(#paint19_linear_366_569)"/>
<path fill-rule="evenodd" clip-rule="evenodd" d="M480.327 259.379L481.327 260.379L481.327 356.465C481.327 365.015 479.793 373.323 476.991 381.199L476.155 382.035L475.686 381.861C478.682 373.791 480.327 365.255 480.327 356.465L480.327 259.379ZM476.99 256.042L477.99 257.042L477.99 359.254C477.99 367.998 476.451 376.494 473.641 384.548L472.817 385.373L472.347 385.202C475.344 376.957 476.99 368.235 476.99 359.254L476.99 256.042ZM473.652 252.795C473.987 253.107 474.321 253.422 474.652 253.739L474.652 362.043C474.652 370.665 473.42 379.053 471.163 387.026L469.688 388.502C472.247 380.095 473.652 371.202 473.652 362.043L473.652 252.795ZM470.982 250.395C471.317 250.685 471.65 250.978 471.982 251.274L471.982 364.274C471.982 373.366 470.436 382.201 467.615 390.575L466.809 391.38L466.337 391.215C469.335 382.655 470.982 373.6 470.982 364.274L470.982 250.395ZM467.644 247.622C467.979 247.889 468.313 248.157 468.644 248.428L468.644 367.063C468.644 376.348 467.095 385.371 464.268 393.922L463.472 394.718L462.999 394.556C465.997 385.82 467.644 376.58 467.644 367.063L467.644 247.622ZM464.974 245.572C465.309 245.82 465.642 246.071 465.974 246.323L465.974 369.852C465.974 379.306 464.211 388.492 460.992 397.197L460.134 398.056L459.668 397.876C463.093 388.97 464.974 379.551 464.974 369.852L464.974 245.572ZM461.637 243.202C461.971 243.429 462.305 243.659 462.637 243.89L462.637 373.199C462.637 382.511 461.002 391.57 458.008 400.182L456.343 401.847C459.76 392.743 461.637 383.114 461.637 373.199L461.637 243.202ZM458.299 241.029C458.634 241.237 458.967 241.448 459.299 241.66L459.299 374.872C459.299 384.698 457.741 394.245 454.898 403.292L454.126 404.063L453.651 403.909C456.651 394.683 458.299 384.924 458.299 374.872L458.299 241.029ZM455.629 239.424C455.963 239.618 456.297 239.814 456.629 240.011L456.629 378.219C456.629 387.886 454.982 397.289 451.965 406.225L450.334 407.855C453.752 398.437 455.629 388.476 455.629 378.219L455.629 239.424ZM452.291 237.573C452.626 237.75 452.959 237.929 453.291 238.11L453.291 381.008C453.291 390.871 451.638 400.465 448.609 409.581L446.996 411.194C450.414 401.601 452.291 391.456 452.291 381.008L452.291 237.573ZM448.954 235.886C449.288 236.047 449.621 236.21 449.954 236.375L449.954 383.797C449.954 393.856 448.294 403.64 445.254 412.936L443.658 414.532C447.077 404.765 448.954 394.435 448.954 383.797L448.954 235.886ZM446.284 234.648C446.618 234.797 446.951 234.948 447.284 235.1L447.284 386.028C447.284 396.244 445.619 406.18 442.571 415.619L440.988 417.202C444.406 407.296 446.284 396.818 446.284 386.028L446.284 234.648ZM442.946 233.233C443.28 233.368 443.614 233.504 443.946 233.642L443.946 388.817C443.946 399.228 442.275 409.354 439.217 418.973L437.65 420.54C441.068 410.46 442.946 399.797 442.946 388.817L442.946 233.233ZM439.608 231.961C439.943 232.081 440.276 232.203 440.608 232.327L440.608 391.605C440.608 402.212 438.932 412.528 435.864 422.325L434.312 423.878C437.731 413.624 439.608 402.776 439.608 391.605L439.608 231.961ZM436.938 231.04C437.272 231.15 437.606 231.262 437.938 231.375L437.938 393.837C437.938 404.931 435.931 415.71 432.268 425.921L431.431 426.759L430.962 426.585C434.82 416.179 436.938 405.172 436.938 393.837L436.938 231.04ZM433.601 230.008C433.935 230.105 434.268 230.204 434.601 230.304L434.601 396.626C434.601 407.583 432.915 418.239 429.831 428.358L428.303 429.887C431.723 419.318 433.601 408.139 433.601 396.626L433.601 230.008ZM430.263 229.104C430.597 229.188 430.93 229.274 431.263 229.362L431.263 399.414C431.263 410.567 429.573 421.412 426.48 431.709L424.965 433.225C428.385 422.482 430.263 411.118 430.263 399.414L430.263 229.104ZM427.593 228.469C427.927 228.543 428.26 228.62 428.593 228.698L428.593 401.646C428.593 413.28 426.577 424.584 422.899 435.291L422.085 436.104L421.614 435.937C425.473 425.042 427.593 413.516 427.593 401.646L427.593 228.469ZM424.255 227.784C424.589 227.846 424.923 227.911 425.255 227.977L425.255 404.992C425.255 416.497 423.357 427.684 419.884 438.306L418.292 439.898C422.141 428.806 424.255 417.074 424.255 404.992L424.255 227.784ZM421.585 227.321C421.919 227.374 422.252 227.429 422.585 227.485L422.585 407.891C422.585 419.512 420.487 430.812 416.647 441.543L414.957 443.233C419.236 432.002 421.585 420.123 421.585 407.891L421.585 227.321ZM418.248 226.846C418.581 226.887 418.915 226.931 419.248 226.976L419.248 410.012C419.248 421.868 417.34 433.396 413.85 444.339L412.284 445.906C416.133 434.501 418.248 422.437 418.248 410.012L418.248 226.846ZM415.621 226.552C415.783 226.568 415.945 226.584 416.107 226.601L416.107 412.302C416.107 424.661 413.998 436.668 410.149 448.04L409.344 448.846C413.386 437.237 415.607 424.953 415.607 412.3L415.607 226.552L415.621 226.552ZM479.492 378.697L479.017 378.543C481.586 370.642 482.997 362.284 482.997 353.676L482.997 262.05L483 262.052L483 366.272C482.369 370.244 481.447 374.137 480.263 377.927L479.492 378.697Z" fill="url(#paint20_linear_366_569)"/>
<path fill-rule="evenodd" clip-rule="evenodd" d="M143.673 376.621L142.673 375.621L142.673 279.535C142.673 270.985 144.207 262.677 147.009 254.801L147.845 253.965L148.314 254.139C145.318 262.209 143.673 270.745 143.673 279.535L143.673 376.621ZM147.01 379.958L146.01 378.958L146.01 276.746C146.01 268.002 147.549 259.506 150.359 251.452L151.183 250.627L151.653 250.798C148.656 259.043 147.01 267.765 147.01 276.746L147.01 379.958ZM150.348 383.205C150.013 382.893 149.679 382.578 149.348 382.261L149.348 273.957C149.348 265.335 150.58 256.947 152.837 248.974L154.312 247.498C151.753 255.905 150.348 264.798 150.348 273.957L150.348 383.205ZM153.018 385.605C152.683 385.315 152.35 385.022 152.018 384.726L152.018 271.726C152.018 262.634 153.564 253.799 156.385 245.425L157.191 244.62L157.663 244.785C154.665 253.345 153.018 262.4 153.018 271.726L153.018 385.605ZM156.356 388.378C156.021 388.111 155.687 387.843 155.356 387.572L155.356 268.937C155.356 259.652 156.905 250.629 159.732 242.078L160.528 241.282L161.001 241.444C158.003 250.18 156.356 259.42 156.356 268.937L156.356 388.378ZM159.026 390.428C158.691 390.18 158.358 389.929 158.026 389.677L158.026 266.148C158.026 256.694 159.789 247.508 163.008 238.803L163.866 237.944L164.333 238.124C160.907 247.03 159.026 256.449 159.026 266.148L159.026 390.428ZM162.363 392.798C162.029 392.571 161.695 392.341 161.363 392.11L161.363 262.801C161.363 253.489 162.998 244.43 165.992 235.818L167.657 234.153C164.24 243.257 162.363 252.886 162.363 262.801L162.363 392.798ZM165.701 394.971C165.366 394.763 165.033 394.552 164.701 394.34L164.701 261.128C164.701 251.302 166.259 241.755 169.102 232.708L169.874 231.937L170.349 232.091C167.349 241.317 165.701 251.076 165.701 261.128L165.701 394.971ZM168.371 396.576C168.037 396.382 167.703 396.186 167.371 395.989L167.371 257.781C167.371 248.114 169.018 238.711 172.035 229.775L173.666 228.145C170.248 237.563 168.371 247.524 168.371 257.781L168.371 396.576ZM171.709 398.427C171.374 398.25 171.041 398.071 170.709 397.89L170.709 254.992C170.709 245.129 172.363 235.535 175.391 226.419L177.004 224.806C173.586 234.399 171.709 244.544 171.709 254.992L171.709 398.427ZM175.046 400.114C174.712 399.953 174.379 399.79 174.046 399.625L174.046 252.203C174.046 242.144 175.706 232.36 178.746 223.064L180.342 221.468C176.924 231.235 175.046 241.565 175.046 252.203L175.046 400.114ZM177.716 401.352C177.382 401.203 177.049 401.052 176.716 400.9L176.716 249.972C176.716 239.756 178.381 229.82 181.429 220.381L183.012 218.798C179.594 228.704 177.716 239.182 177.716 249.972L177.716 401.352ZM181.054 402.767C180.72 402.632 180.386 402.496 180.054 402.358L180.054 247.183C180.054 236.772 181.725 226.646 184.783 217.027L186.35 215.46C182.932 225.54 181.054 236.203 181.054 247.183L181.054 402.767ZM184.392 404.039C184.057 403.919 183.724 403.797 183.392 403.673L183.392 244.395C183.392 233.788 185.068 223.472 188.136 213.675L189.688 212.122C186.269 222.376 184.392 233.224 184.392 244.395L184.392 404.039ZM187.062 404.96C186.728 404.85 186.394 404.738 186.062 404.625L186.062 242.163C186.062 231.069 188.069 220.29 191.732 210.079L192.569 209.241L193.038 209.415C189.18 219.821 187.062 230.828 187.062 242.163L187.062 404.96ZM190.399 405.992C190.065 405.895 189.732 405.796 189.399 405.696L189.399 239.375C189.399 228.417 191.085 217.761 194.169 207.642L195.697 206.113C192.277 216.682 190.399 227.861 190.399 239.375L190.399 405.992ZM193.737 406.896C193.403 406.812 193.07 406.726 192.737 406.638L192.737 236.586C192.737 225.433 194.427 214.588 197.52 204.291L199.035 202.775C195.615 213.518 193.737 224.882 193.737 236.586L193.737 406.896ZM196.407 407.531C196.073 407.457 195.74 407.38 195.407 407.303L195.407 234.354C195.407 222.72 197.423 211.416 201.101 200.709L201.915 199.896L202.386 200.063C198.527 210.958 196.407 222.484 196.407 234.354L196.407 407.531ZM199.745 408.216C199.411 408.154 199.077 408.089 198.745 408.023L198.745 231.008C198.745 219.503 200.643 208.316 204.116 197.694L205.708 196.102C201.859 207.194 199.745 218.926 199.745 231.008L199.745 408.216ZM202.415 408.679C202.081 408.626 201.748 408.571 201.415 408.515L201.415 228.109C201.415 216.488 203.513 205.188 207.353 194.457L209.043 192.767C204.764 203.998 202.415 215.877 202.415 228.109L202.415 408.679ZM205.752 409.154C205.419 409.113 205.085 409.069 204.752 409.024L204.752 225.988C204.752 214.132 206.66 202.604 210.15 191.661L211.716 190.094C207.867 201.499 205.752 213.563 205.752 225.988L205.752 409.154ZM208.379 409.448C208.217 409.432 208.055 409.416 207.893 409.399L207.893 223.698C207.893 211.339 210.003 199.332 213.851 187.96L214.656 187.154C210.614 198.763 208.393 211.047 208.393 223.7L208.393 409.448L208.379 409.448ZM144.508 257.303L144.983 257.457C142.414 265.358 141.003 273.716 141.003 282.324L141.003 373.95L141 373.948L141 269.728C141.631 265.756 142.553 261.863 143.737 258.073L144.508 257.303Z" fill="url(#paint21_linear_366_569)"/>
<path fill-rule="evenodd" clip-rule="evenodd" d="M487.728 662.781L486.314 662.781L431.536 608.003C426.697 603.164 422.853 597.6 419.962 591.567L419.962 590.385L420.415 590.177C423.307 596.485 427.235 602.287 432.244 607.296L487.728 662.781ZM491.539 662.781L490.124 662.781L431.85 604.506C426.899 599.555 422.95 593.881 419.962 587.74L419.962 586.575L420.414 586.364C423.405 592.772 427.438 598.68 432.557 603.799L491.539 662.781ZM495.293 662.724C494.835 662.741 494.377 662.754 493.918 662.764L432.163 601.009C427.277 596.123 423.215 590.677 419.962 584.887L419.962 582.942L420.021 582.911C423.359 589.18 427.636 595.067 432.87 600.302L495.293 662.724ZM498.183 662.566C497.741 662.598 497.298 662.627 496.854 662.652L432.413 598.211C427.263 593.061 423.125 587.187 419.962 580.855L419.962 579.716L420.411 579.499C423.582 586.088 427.805 592.188 433.121 597.504L498.183 662.566ZM501.666 662.239C501.241 662.288 500.816 662.334 500.39 662.376L432.727 594.713C427.466 589.452 423.222 583.469 419.962 577.031L419.962 575.905L420.41 575.686C423.68 582.375 428.009 588.582 433.434 594.006L501.666 662.239ZM504.357 661.881C503.945 661.943 503.533 662.002 503.119 662.057L432.659 591.597C427.305 586.243 423.09 580.05 419.962 573.307L419.962 572.095L420.418 571.892C423.541 578.921 427.838 585.362 433.366 590.89L504.357 661.881ZM507.612 661.325C507.215 661.402 506.817 661.475 506.418 661.545L432.654 587.781C427.378 582.506 423.163 576.455 419.962 569.891L419.962 567.73L420.035 567.697C423.278 574.847 427.702 581.415 433.361 587.074L507.612 661.325ZM510.754 660.657C510.37 660.746 509.986 660.833 509.6 660.918L433.604 584.921C428.033 579.35 423.495 573.061 419.962 566.328L419.962 565.236L420.406 565.009C423.956 571.98 428.58 578.483 434.311 584.214L510.754 660.657ZM513.192 660.046C512.818 660.146 512.444 660.243 512.069 660.337L433.218 581.486C427.739 576.008 423.334 569.752 419.962 562.987L419.962 560.866L420.033 560.833C423.455 568.164 428.069 574.923 433.925 580.779L513.192 660.046ZM516.15 659.194C515.789 659.306 515.426 659.415 515.063 659.521L433.531 577.989C427.94 572.398 423.43 566.029 419.962 559.154L419.962 557.053L420.032 557.02C423.553 564.451 428.273 571.317 434.238 577.282L516.15 659.194ZM519.015 658.249C518.665 658.372 518.314 658.492 517.962 658.61L433.844 574.492C428.141 568.788 423.526 562.306 419.962 555.322L419.962 553.24L420.03 553.207C423.652 560.738 428.477 567.71 434.551 573.785L519.015 658.249ZM521.244 657.429C520.902 657.56 520.56 657.689 520.217 657.816L434.095 571.694C428.302 565.901 423.603 559.329 419.962 552.256L419.962 550.189L420.029 550.156C423.73 557.768 428.64 564.825 434.802 570.987L521.244 657.429ZM523.954 656.328C523.623 656.47 523.291 656.609 522.958 656.746L434.408 568.196C428.503 562.292 423.699 555.607 419.962 548.426L419.962 546.376L420.028 546.343C423.829 554.055 428.844 561.218 435.115 567.489L523.954 656.328ZM526.583 655.147C526.262 655.298 525.939 655.447 525.616 655.594L434.721 564.699C428.704 558.682 423.796 551.886 419.962 544.596L419.962 542.563L420.027 542.531C423.927 550.343 429.048 557.612 435.428 563.992L526.583 655.147ZM528.63 654.146C528.317 654.305 528.002 654.462 527.687 654.616L434.972 561.901C428.68 555.61 423.695 548.366 419.962 540.509L419.962 539.324L420.415 539.116C424.149 547.248 429.216 554.732 435.679 561.194L528.63 654.146ZM531.122 652.827C530.818 652.995 530.512 653.161 530.206 653.325L435.285 558.404C429.067 552.186 423.969 545.19 419.962 537.705L419.962 535.7L420.025 535.668C424.105 543.66 429.415 551.12 435.992 557.697L531.122 652.827ZM533.542 651.436C533.246 651.613 532.949 651.788 532.652 651.961L435.598 554.907C429.269 548.578 424.066 541.47 419.962 533.878L419.962 531.887L420.024 531.855C424.203 539.948 429.62 547.514 436.305 554.199L533.542 651.436ZM535.426 650.272C535.138 650.456 534.848 650.638 534.557 650.818L435.849 552.109C429.247 545.508 423.968 537.957 419.962 529.805L419.962 528.654L420.412 528.44C424.424 536.853 429.788 544.634 436.556 551.402L535.426 650.272ZM537.72 648.756C537.44 648.948 537.159 649.138 536.877 649.326L435.843 548.293C429.315 541.765 424.036 534.346 419.962 526.356L419.962 524.278L420.03 524.245C424.161 532.779 429.652 540.687 436.551 547.586L537.72 648.756ZM539.507 647.494C539.234 647.693 538.959 647.89 538.683 648.085L435.713 545.114C429.121 538.522 423.891 530.929 419.962 522.674L419.962 520.482L420.036 520.448C424.001 529.303 429.439 537.426 436.42 544.407L539.507 647.494ZM541.681 645.858C541.416 646.064 541.15 646.269 540.882 646.473L436.407 541.998C429.678 535.269 424.21 527.649 419.962 519.465L419.962 517.415L420.028 517.383C424.339 526.097 430.019 534.195 437.114 541.291L541.681 645.858ZM419.963 514.105C424.283 523.039 430.027 531.318 437.249 538.54L543.284 644.576C543.153 644.683 543.022 644.79 542.891 644.896L436.893 538.898C429.878 531.883 424.251 523.877 419.962 515.247L419.962 514.106L419.963 514.105ZM419.962 594.196L420.406 593.97C423.445 599.938 427.405 605.506 432.311 610.412L484.68 662.781L484.547 662.781L424.614 602.848C422.886 600.42 421.336 597.892 419.962 595.286L419.962 594.196Z" fill="url(#paint22_linear_366_569)"/>
<path fill-rule="evenodd" clip-rule="evenodd" d="M612.726 403.68H614.14L668.918 458.458C673.757 463.297 677.601 468.861 680.492 474.894L680.492 476.076L680.039 476.283C677.147 469.976 673.219 464.174 668.21 459.165L612.726 403.68ZM608.915 403.68H610.33L668.604 461.955C673.555 466.905 677.504 472.58 680.492 478.721L680.492 479.886L680.04 480.097C677.048 473.689 673.016 467.781 667.897 462.662L608.915 403.68ZM605.161 403.737C605.619 403.72 606.077 403.707 606.536 403.697L668.291 465.452C673.177 470.338 677.239 475.784 680.492 481.574L680.492 483.519L680.433 483.55C677.095 477.281 672.818 471.394 667.584 466.159L605.161 403.737ZM602.271 403.895C602.713 403.863 603.156 403.834 603.6 403.809L668.041 468.25C673.191 473.4 677.329 479.274 680.492 485.606L680.492 486.745L680.043 486.961C676.872 480.373 672.649 474.273 667.333 468.957L602.271 403.895ZM598.788 404.222C599.213 404.173 599.638 404.127 600.064 404.085L667.727 471.748C672.988 477.008 677.232 482.992 680.492 489.43L680.492 490.556L680.044 490.775C676.774 484.086 672.445 477.879 667.02 472.455L598.788 404.222ZM596.097 404.579C596.509 404.518 596.921 404.459 597.335 404.404L667.795 474.864C673.149 480.218 677.364 486.411 680.492 493.154L680.492 494.366L680.036 494.569C676.913 487.539 672.616 481.099 667.088 475.571L596.097 404.579ZM592.842 405.135C593.239 405.059 593.637 404.986 594.036 404.915L667.8 478.68C673.076 483.955 677.291 490.006 680.492 496.57L680.492 498.731L680.419 498.764C677.176 491.614 672.752 485.046 667.093 479.387L592.842 405.135ZM589.7 405.804C590.084 405.714 590.468 405.628 590.854 405.543L666.85 481.54C672.421 487.11 676.959 493.4 680.492 500.133L680.492 501.225L680.048 501.452C676.498 494.481 671.874 487.978 666.143 482.247L589.7 405.804ZM587.262 406.415C587.636 406.315 588.01 406.218 588.385 406.123L667.236 484.975C672.715 490.453 677.12 496.709 680.492 503.474L680.492 505.595L680.421 505.628C676.999 498.297 672.385 491.538 666.529 485.682L587.262 406.415ZM584.304 407.267C584.665 407.155 585.028 407.046 585.391 406.94L666.923 488.472C672.514 494.063 677.024 500.432 680.492 507.307L680.492 509.408L680.422 509.441C676.901 502.01 672.181 495.144 666.216 489.179L584.304 407.267ZM581.439 408.212C581.789 408.089 582.14 407.969 582.492 407.851L666.61 491.969C672.313 497.673 676.928 504.154 680.492 511.139L680.492 513.221L680.424 513.254C676.802 505.723 671.977 498.751 665.903 492.676L581.439 408.212ZM579.21 409.032C579.552 408.901 579.894 408.772 580.237 408.645L666.359 494.767C672.152 500.56 676.851 507.132 680.492 514.205L680.492 516.272L680.424 516.305C676.724 508.693 671.814 501.636 665.652 495.474L579.21 409.032ZM576.5 410.133C576.831 409.991 577.163 409.852 577.496 409.715L666.046 498.265C671.951 504.169 676.755 510.854 680.492 518.035L680.492 520.085L680.426 520.117C676.625 512.406 671.61 505.243 665.339 498.972L576.5 410.133ZM573.871 411.314C574.192 411.163 574.514 411.014 574.838 410.866L665.733 501.762C671.75 507.779 676.658 514.575 680.492 521.865V523.898L680.427 523.93C676.527 516.118 671.406 508.849 665.026 502.469L573.871 411.314ZM571.824 412.315C572.137 412.156 572.452 411.999 572.767 411.845L665.482 504.56C671.774 510.851 676.759 518.095 680.492 525.952V527.137L680.039 527.345C676.305 519.212 671.238 511.729 664.775 505.267L571.824 412.315ZM569.332 413.634C569.636 413.466 569.942 413.3 570.248 413.136L665.169 508.057C671.387 514.275 676.485 521.271 680.492 528.756L680.492 530.761L680.429 530.793C676.349 522.801 671.039 515.341 664.462 508.764L569.332 413.634ZM566.912 415.025C567.208 414.848 567.504 414.673 567.802 414.5L664.856 511.554C671.185 517.883 676.388 524.991 680.492 532.583L680.492 534.574L680.43 534.606C676.251 526.513 670.834 518.947 664.149 512.261L566.912 415.025ZM565.028 416.189C565.316 416.005 565.606 415.823 565.897 415.643L664.605 514.352C671.207 520.953 676.486 528.504 680.492 536.656L680.492 537.807L680.042 538.021C676.03 529.608 670.666 521.827 663.898 515.059L565.028 416.189ZM562.734 417.705C563.014 417.513 563.295 417.323 563.577 417.135L664.611 518.168C671.139 524.696 676.418 532.115 680.492 540.105L680.492 542.183L680.424 542.216C676.292 533.682 670.802 525.774 663.903 518.875L562.734 417.705ZM560.947 418.967C561.22 418.768 561.495 418.571 561.771 418.376L664.741 521.347C671.333 527.939 676.563 535.532 680.492 543.787L680.492 545.979L680.418 546.013C676.453 537.158 671.015 529.035 664.034 522.054L560.947 418.967ZM558.773 420.603C559.038 420.397 559.304 420.192 559.572 419.988L664.047 524.463C670.776 531.192 676.244 538.812 680.492 546.996V549.046L680.426 549.078C676.115 540.364 670.435 532.266 663.34 525.17L558.773 420.603ZM680.491 552.356C676.171 543.422 670.427 535.143 663.205 527.921L557.17 421.885C557.301 421.778 557.432 421.671 557.563 421.565L663.561 527.563C670.576 534.578 676.203 542.584 680.492 551.214L680.492 552.355L680.491 552.356ZM680.492 472.265L680.048 472.491C677.009 466.523 673.049 460.955 668.143 456.049L615.774 403.68L615.907 403.68L675.84 463.613C677.568 466.041 679.118 468.569 680.492 471.175L680.492 472.265Z" fill="url(#paint23_linear_366_569)"/>
<path fill-rule="evenodd" clip-rule="evenodd" d="M420.665 470.747L420.665 469.333L475.446 414.552C480.284 409.714 485.844 405.872 491.875 402.981L493.066 402.981L493.272 403.431C486.965 406.323 481.163 410.25 476.154 415.259L420.665 470.747ZM420.665 474.558L420.665 473.144L478.944 414.865C483.892 409.917 489.564 405.969 495.702 402.981L496.877 402.981L497.086 403.429C490.678 406.421 484.769 410.453 479.651 415.572L420.665 474.558ZM420.722 478.312C420.705 477.854 420.691 477.396 420.682 476.937L482.441 415.178C487.325 410.294 492.768 406.234 498.556 402.981L500.51 402.981L500.539 403.036C494.27 406.374 488.382 410.651 483.148 415.885L420.722 478.312ZM420.88 481.202C420.848 480.76 420.819 480.317 420.794 479.873L485.239 415.429C490.387 410.281 496.258 406.143 502.587 402.981L503.736 402.981L503.95 403.427C497.361 406.597 491.261 410.82 485.946 416.136L420.88 481.202ZM421.207 484.685C421.158 484.26 421.112 483.835 421.069 483.409L488.736 415.742C493.995 410.483 499.976 406.241 506.411 402.981L507.546 402.981L507.764 403.425C501.074 406.696 494.868 411.024 489.443 416.449L421.207 484.685ZM421.564 487.376C421.503 486.964 421.444 486.552 421.388 486.138L491.853 415.674C497.205 410.322 503.395 406.109 510.134 402.981L511.357 402.981L511.558 403.433C504.528 406.557 498.088 410.853 492.56 416.381L421.564 487.376ZM422.12 490.631C422.044 490.234 421.971 489.836 421.9 489.437L495.668 415.669C500.942 410.395 506.989 406.181 513.551 402.981L515.721 402.981L515.753 403.05C508.603 406.293 502.034 410.717 496.375 416.376L422.12 490.631ZM422.789 493.773C422.699 493.389 422.612 493.005 422.528 492.619L498.529 416.619C504.097 411.05 510.384 406.514 517.115 402.981L518.216 402.981L518.44 403.422C511.47 406.971 504.966 411.596 499.236 417.326L422.789 493.773ZM423.4 496.211C423.3 495.837 423.203 495.463 423.108 495.088L501.963 416.233C507.44 410.756 513.693 406.353 520.454 402.981L522.585 402.981L522.617 403.048C515.286 406.47 508.526 411.084 502.671 416.94L423.4 496.211ZM424.252 499.169C424.14 498.808 424.031 498.445 423.924 498.082L505.461 416.546C511.05 410.957 517.416 406.449 524.288 402.981L526.399 402.981L526.43 403.047C518.999 406.569 512.133 411.288 506.168 417.253L424.252 499.169ZM425.197 502.034C425.074 501.684 424.954 501.333 424.836 500.982L508.958 416.859C514.659 411.158 521.139 406.545 528.12 402.981L530.212 402.981L530.243 403.046C522.712 406.667 515.74 411.492 509.665 417.566L425.197 502.034ZM426.017 504.263C425.885 503.922 425.756 503.579 425.63 503.236L511.756 417.11C517.547 411.319 524.116 406.621 531.186 402.981L533.262 402.981L533.293 403.045C525.682 406.746 518.625 411.655 512.463 417.817L426.017 504.263ZM427.118 506.973C426.976 506.642 426.837 506.31 426.699 505.977L515.253 417.423C521.156 411.52 527.838 406.718 535.016 402.981L537.076 402.981L537.106 403.043C529.395 406.844 522.231 411.859 515.96 418.13L427.118 506.973ZM428.299 509.602C428.148 509.281 427.998 508.959 427.851 508.635L518.751 417.736C524.765 411.721 531.559 406.814 538.846 402.981L540.889 402.981L540.919 403.042C533.107 406.942 525.838 412.063 519.458 418.443L428.299 509.602ZM429.3 511.649C429.141 511.336 428.984 511.021 428.83 510.706L521.548 417.987C527.838 411.697 535.078 406.714 542.933 402.981L544.128 402.981L544.334 403.43C536.201 407.164 528.718 412.232 522.256 418.694L429.3 511.649ZM430.619 514.141C430.451 513.837 430.285 513.531 430.121 513.225L525.046 418.3C531.261 412.084 538.256 406.988 545.737 402.981L547.752 402.981L547.782 403.04C539.79 407.12 532.329 412.431 525.753 419.007L430.619 514.141ZM432.01 516.561C431.833 516.265 431.658 515.969 431.485 515.671L528.543 418.613C534.87 412.286 541.975 407.085 549.564 402.981L551.565 402.981L551.595 403.039C543.502 407.218 535.936 412.635 529.25 419.32L432.01 516.561ZM433.174 518.445C432.99 518.157 432.808 517.867 432.628 517.576L531.341 418.864C537.94 412.265 545.487 406.987 553.637 402.981L554.797 402.981L555.01 403.427C546.597 407.44 538.816 412.803 532.048 419.571L433.174 518.445ZM434.69 520.739C434.498 520.459 434.308 520.178 434.119 519.896L535.157 418.859C541.683 412.333 549.099 407.054 557.086 402.981L559.173 402.981L559.204 403.045C550.671 407.177 542.763 412.667 535.864 419.566L434.69 520.739ZM435.952 522.526C435.753 522.253 435.556 521.978 435.361 521.703L538.336 418.728C544.926 412.138 552.516 406.909 560.768 402.981L562.97 402.981L563.001 403.051C554.146 407.016 546.024 412.454 539.043 419.435L435.952 522.526ZM437.588 524.7C437.381 524.435 437.176 524.169 436.973 523.901L541.452 419.422C548.179 412.695 555.796 407.228 563.977 402.981L566.036 402.981L566.067 403.043C557.353 407.354 549.254 413.034 542.159 420.13L437.588 524.7ZM438.844 526.271C438.745 526.151 438.647 526.031 438.55 525.91L544.552 419.908C551.565 412.895 559.568 407.269 568.195 402.981L569.343 402.981C560.409 407.301 552.128 413.045 544.905 420.268L438.873 526.3L438.844 526.271ZM489.256 402.981L489.48 403.422C483.512 406.461 477.944 410.42 473.037 415.327L420.665 467.699L420.665 467.566L480.602 407.629C483.028 405.903 485.553 404.354 488.157 402.981L489.256 402.981Z" fill="url(#paint24_linear_366_569)"/>
<path fill-rule="evenodd" clip-rule="evenodd" d="M679.773 595.733L679.773 597.147L624.992 651.929C620.155 656.766 614.594 660.609 608.563 663.499L607.372 663.499L607.166 663.05C613.474 660.158 619.276 656.231 624.285 651.222L679.773 595.733ZM679.773 591.923V593.337L621.495 651.616C616.546 656.564 610.874 660.512 604.737 663.499L603.561 663.499L603.352 663.051C609.76 660.06 615.669 656.027 620.787 650.909L679.773 591.923ZM679.717 588.169C679.734 588.626 679.747 589.085 679.756 589.543L617.997 651.302C613.114 656.186 607.67 660.247 601.882 663.499L599.929 663.499L599.899 663.444C606.169 660.106 612.056 655.829 617.29 650.595L679.717 588.169ZM679.559 585.278C679.591 585.721 679.619 586.163 679.644 586.607L615.199 651.052C610.051 656.2 604.181 660.337 597.851 663.499L596.702 663.499L596.488 663.054C603.077 659.883 609.177 655.66 614.492 650.345L679.559 585.278ZM679.231 581.795C679.28 582.22 679.326 582.646 679.369 583.072L611.702 650.739C606.443 655.997 600.463 660.24 594.027 663.499L592.892 663.499L592.675 663.055C599.364 659.785 605.57 655.456 610.995 650.031L679.231 581.795ZM678.874 579.104C678.936 579.516 678.994 579.929 679.05 580.342L608.586 650.806C603.234 656.159 597.043 660.372 590.304 663.499L589.081 663.499L588.881 663.048C595.91 659.924 602.351 655.627 607.879 650.099L678.874 579.104ZM678.318 575.849C678.394 576.247 678.468 576.645 678.538 577.044L604.77 650.812C599.497 656.085 593.449 660.299 586.888 663.499L584.717 663.499L584.686 663.43C591.835 660.187 598.404 655.764 604.063 650.105L678.318 575.849ZM677.649 572.708C677.739 573.091 677.826 573.476 677.91 573.861L601.91 649.862C596.341 655.43 590.054 659.967 583.324 663.499H582.222L581.998 663.059C588.968 659.51 595.472 654.885 601.202 649.154L677.649 572.708ZM677.039 570.27C677.138 570.643 677.236 571.018 677.33 571.393L598.475 650.248C592.998 655.724 586.746 660.128 579.984 663.499L577.853 663.499L577.822 663.432C585.152 660.01 591.912 655.397 597.768 649.541L677.039 570.27ZM676.187 567.311C676.298 567.673 676.407 568.035 676.514 568.398L594.978 649.935C589.389 655.524 583.022 660.032 576.15 663.499L574.04 663.499L574.009 663.434C581.439 659.912 588.305 655.193 594.27 649.227L676.187 567.311ZM675.241 564.446C675.364 564.796 675.485 565.147 675.603 565.499L591.48 649.621C585.779 655.323 579.3 659.936 572.318 663.499L570.226 663.499L570.195 663.435C577.727 659.814 584.699 654.989 590.773 648.914L675.241 564.446ZM674.421 562.218C674.553 562.559 674.682 562.901 674.809 563.245L588.682 649.371C582.891 655.162 576.322 659.859 569.253 663.499H567.176L567.145 663.436C574.756 659.735 581.814 654.825 587.975 648.664L674.421 562.218ZM673.321 559.508C673.462 559.839 673.602 560.171 673.739 560.504L585.185 649.058C579.282 654.96 572.601 659.763 565.422 663.499L563.363 663.499L563.332 663.437C571.044 659.636 578.207 654.621 584.478 648.35L673.321 559.508ZM672.139 556.879C672.291 557.2 672.44 557.522 672.587 557.845L581.688 648.744C575.673 654.759 568.88 659.666 561.592 663.499L559.55 663.499L559.519 663.438C567.331 659.538 574.601 654.417 580.981 648.037L672.139 556.879ZM671.138 554.831C671.297 555.145 671.454 555.459 671.609 555.775L578.89 648.494C572.6 654.783 565.36 659.766 557.506 663.499L556.311 663.499L556.104 663.05C564.237 659.317 571.72 654.249 578.183 647.787L671.138 554.831ZM669.82 552.339C669.988 552.644 670.154 552.949 670.318 553.255L575.393 648.18C569.177 654.396 562.183 659.493 554.701 663.499L552.686 663.499L552.656 663.44C560.649 659.361 568.109 654.05 574.685 647.473L669.82 552.339ZM668.428 549.92C668.605 550.215 668.78 550.512 668.953 550.809L571.895 647.867C565.568 654.194 558.463 659.396 550.874 663.499L548.874 663.499L548.844 663.441C556.936 659.262 564.503 653.846 571.188 647.16L668.428 549.92ZM667.265 548.035C667.448 548.324 667.63 548.613 667.81 548.904L569.097 647.617C562.498 654.216 554.951 659.493 546.802 663.499L545.641 663.499L545.428 663.053C553.842 659.041 561.622 653.678 568.39 646.91L667.265 548.035ZM665.748 545.741C665.94 546.021 666.131 546.302 666.319 546.585L565.282 647.622C558.756 654.148 551.339 659.426 543.353 663.499H541.265L541.234 663.435C549.768 659.304 557.676 653.814 564.575 646.915L665.748 545.741ZM664.487 543.954C664.685 544.228 664.882 544.502 665.077 544.778L562.103 647.752C555.513 654.343 547.922 659.571 539.67 663.499H537.468L537.437 663.429C546.292 659.464 554.414 654.027 561.396 647.045L664.487 543.954ZM662.85 541.78C663.057 542.045 663.262 542.312 663.465 542.579L558.986 647.058C552.259 653.785 544.642 659.252 536.461 663.499L534.402 663.499L534.371 663.437C543.085 659.126 551.184 653.446 558.279 646.351L662.85 541.78ZM661.595 540.209C661.693 540.329 661.791 540.45 661.889 540.57L555.887 646.572C548.874 653.585 540.87 659.211 532.244 663.499L531.095 663.499C540.03 659.18 548.31 653.436 555.533 646.213L661.565 540.18L661.595 540.209ZM611.182 663.499L610.958 663.059C616.926 660.02 622.495 656.06 627.401 651.154L679.773 598.782L679.773 598.915L619.837 658.851C617.41 660.577 614.885 662.126 612.282 663.499L611.182 663.499Z" fill="url(#paint25_linear_366_569)"/>
<path d="M537.25 500.844H518.5V512.094H531.156V560.375H521.312L519.906 572.094H538.656V586.156H548.5V572.094H555.531V586.156H565.375V571.156C565.375 571.156 587.841 572.094 592.094 557.094C598.739 533.656 579.906 531.781 579.906 531.781C579.906 531.781 589.047 528.5 587.406 515.375C585.531 500.375 564.438 500.844 564.438 500.844V486.312H554.125V500.844H546.625V486.312H537.25V500.844Z" stroke="#144B53" stroke-width="1.5"/>
<path d="M548.031 529.913V512.569C548.031 512.569 568.911 509.749 569.125 521.007C569.125 531.312 548.031 529.913 548.031 529.913Z" stroke="#144B53" stroke-width="1.5"/>
<path d="M548.5 559.367V540.099C548.5 540.099 573.556 536.966 573.812 549.472C573.812 560.921 548.5 559.367 548.5 559.367Z" stroke="#144B53" stroke-width="1.5"/>
<path d="M537.25 500.844H518.5V512.094H531.156V560.375H521.312L519.906 572.094H538.656V586.156H548.5V572.094H555.531V586.156H565.375V571.156C565.375 571.156 587.841 572.094 592.094 557.094C598.739 533.656 579.906 531.781 579.906 531.781C579.906 531.781 589.047 528.5 587.406 515.375C585.531 500.375 564.438 500.844 564.438 500.844V486.312H554.125V500.844H546.625V486.312H537.25V500.844Z" stroke="url(#paint26_radial_366_569)" stroke-opacity="0.1" stroke-width="1.5"/>
<path d="M548.031 529.913V512.569C548.031 512.569 568.911 509.749 569.125 521.007C569.125 531.312 548.031 529.913 548.031 529.913Z" stroke="url(#paint27_radial_366_569)" stroke-opacity="0.1" stroke-width="1.5"/>
<path d="M548.5 559.367V540.099C548.5 540.099 573.556 536.966 573.812 549.472C573.812 560.921 548.5 559.367 548.5 559.367Z" stroke="url(#paint28_radial_366_569)" stroke-opacity="0.1" stroke-width="1.5"/>
<path d="M273.197 367.895L273.197 247.895" stroke="#1A646E" stroke-width="1.2"/>
<path d="M345.197 391.895L345.197 283.895" stroke="#1A646E" stroke-width="1.2"/>
<rect x="264.194" y="274.495" width="18" height="66.8" rx="1.8" fill="#281740" stroke="#1A646E" stroke-width="1.2"/>
<rect x="336.194" y="306.096" width="18" height="76.8" rx="1.8" fill="#281740" stroke="#1A646E" stroke-width="1.2"/>
<path d="M299.597 273.296V265.629L309.797 257.495L319.997 265.629V273.296L309.797 265.629L299.597 273.296Z" stroke="url(#paint29_linear_366_569)" stroke-width="1.2"/>
<path d="M299.597 286.995V279.328L309.797 271.194L319.997 279.328V286.995L309.797 279.328L299.597 286.995Z" stroke="url(#paint30_linear_366_569)" stroke-width="1.2"/>
<path d="M299.597 293.027V300.695L309.797 293.027L319.997 300.695V293.027L309.797 284.893L299.597 293.027Z" stroke="url(#paint31_linear_366_569)" stroke-width="1.2"/>
<path d="M232.52 355.895V331.987H226.397L237.197 319.895L247.997 331.987H241.873V355.895" stroke="url(#paint32_linear_366_569)" stroke-width="1.2"/>
<path d="M395.597 337.693L395.597 345.361L385.397 353.495L375.197 345.361L375.197 337.693L385.397 345.361L395.597 337.693Z" stroke="url(#paint33_linear_366_569)" stroke-width="1.2"/>
<path d="M395.597 323.994L395.597 331.661L385.397 339.795L375.197 331.661L375.197 323.994L385.397 331.661L395.597 323.994Z" stroke="url(#paint34_linear_366_569)" stroke-width="1.2"/>
<path d="M395.597 317.962L395.597 310.295L385.397 317.962L375.197 310.295L375.197 317.962L385.397 326.096L395.597 317.962Z" stroke="url(#paint35_linear_366_569)" stroke-width="1.2"/>
<defs>
<filter id="filter0_f_366_569" x="0.77403" y="162.776" width="819.669" height="495.459" filterUnits="userSpaceOnUse" color-interpolation-filters="sRGB">
<feFlood flood-opacity="0" result="BackgroundImageFix"/>
<feBlend mode="normal" in="SourceGraphic" in2="BackgroundImageFix" result="shape"/>
<feGaussianBlur stdDeviation="2.28568" result="effect1_foregroundBlur_366_569"/>
</filter>
<filter id="filter1_f_366_569" x="9.92247" y="154.663" width="803.459" height="511.669" filterUnits="userSpaceOnUse" color-interpolation-filters="sRGB">
<feFlood flood-opacity="0" result="BackgroundImageFix"/>
<feBlend mode="normal" in="SourceGraphic" in2="BackgroundImageFix" result="shape"/>
<feGaussianBlur stdDeviation="2.28568" result="effect1_foregroundBlur_366_569"/>
</filter>
<filter id="filter2_f_366_569" x="17.9225" y="146.565" width="787.248" height="527.88" filterUnits="userSpaceOnUse" color-interpolation-filters="sRGB">
<feFlood flood-opacity="0" result="BackgroundImageFix"/>
<feBlend mode="normal" in="SourceGraphic" in2="BackgroundImageFix" result="shape"/>
<feGaussianBlur stdDeviation="2.28568" result="effect1_foregroundBlur_366_569"/>
</filter>
<filter id="filter3_f_366_569" x="25.9225" y="138.456" width="771.038" height="544.09" filterUnits="userSpaceOnUse" color-interpolation-filters="sRGB">
<feFlood flood-opacity="0" result="BackgroundImageFix"/>
<feBlend mode="normal" in="SourceGraphic" in2="BackgroundImageFix" result="shape"/>
<feGaussianBlur stdDeviation="2.28568" result="effect1_foregroundBlur_366_569"/>
</filter>
<filter id="filter4_f_366_569" x="33.9147" y="130.358" width="754.827" height="560.301" filterUnits="userSpaceOnUse" color-interpolation-filters="sRGB">
<feFlood flood-opacity="0" result="BackgroundImageFix"/>
<feBlend mode="normal" in="SourceGraphic" in2="BackgroundImageFix" result="shape"/>
<feGaussianBlur stdDeviation="2.28568" result="effect1_foregroundBlur_366_569"/>
</filter>
<filter id="filter5_f_366_569" x="41.9225" y="122.249" width="738.616" height="576.511" filterUnits="userSpaceOnUse" color-interpolation-filters="sRGB">
<feFlood flood-opacity="0" result="BackgroundImageFix"/>
<feBlend mode="normal" in="SourceGraphic" in2="BackgroundImageFix" result="shape"/>
<feGaussianBlur stdDeviation="2.28568" result="effect1_foregroundBlur_366_569"/>
</filter>
<filter id="filter6_f_366_569" x="49.9225" y="114.14" width="722.406" height="592.722" filterUnits="userSpaceOnUse" color-interpolation-filters="sRGB">
<feFlood flood-opacity="0" result="BackgroundImageFix"/>
<feBlend mode="normal" in="SourceGraphic" in2="BackgroundImageFix" result="shape"/>
<feGaussianBlur stdDeviation="2.28568" result="effect1_foregroundBlur_366_569"/>
</filter>
<filter id="filter7_f_366_569" x="57.9147" y="106.042" width="706.195" height="608.932" filterUnits="userSpaceOnUse" color-interpolation-filters="sRGB">
<feFlood flood-opacity="0" result="BackgroundImageFix"/>
<feBlend mode="normal" in="SourceGraphic" in2="BackgroundImageFix" result="shape"/>
<feGaussianBlur stdDeviation="2.28568" result="effect1_foregroundBlur_366_569"/>
</filter>
<filter id="filter8_f_366_569" x="65.9147" y="97.9325" width="689.985" height="625.143" filterUnits="userSpaceOnUse" color-interpolation-filters="sRGB">
<feFlood flood-opacity="0" result="BackgroundImageFix"/>
<feBlend mode="normal" in="SourceGraphic" in2="BackgroundImageFix" result="shape"/>
<feGaussianBlur stdDeviation="2.28568" result="effect1_foregroundBlur_366_569"/>
</filter>
<filter id="filter9_f_366_569" x="162.876" y="0.669354" width="495.459" height="819.669" filterUnits="userSpaceOnUse" color-interpolation-filters="sRGB">
<feFlood flood-opacity="0" result="BackgroundImageFix"/>
<feBlend mode="normal" in="SourceGraphic" in2="BackgroundImageFix" result="shape"/>
<feGaussianBlur stdDeviation="2.28568" result="effect1_foregroundBlur_366_569"/>
</filter>
<filter id="filter10_f_366_569" x="154.779" y="9.81779" width="511.669" height="803.458" filterUnits="userSpaceOnUse" color-interpolation-filters="sRGB">
<feFlood flood-opacity="0" result="BackgroundImageFix"/>
<feBlend mode="normal" in="SourceGraphic" in2="BackgroundImageFix" result="shape"/>
<feGaussianBlur stdDeviation="2.28568" result="effect1_foregroundBlur_366_569"/>
</filter>
<filter id="filter11_f_366_569" x="146.666" y="17.8178" width="527.88" height="787.248" filterUnits="userSpaceOnUse" color-interpolation-filters="sRGB">
<feFlood flood-opacity="0" result="BackgroundImageFix"/>
<feBlend mode="normal" in="SourceGraphic" in2="BackgroundImageFix" result="shape"/>
<feGaussianBlur stdDeviation="2.28568" result="effect1_foregroundBlur_366_569"/>
</filter>
<filter id="filter12_f_366_569" x="138.565" y="25.8178" width="544.09" height="771.038" filterUnits="userSpaceOnUse" color-interpolation-filters="sRGB">
<feFlood flood-opacity="0" result="BackgroundImageFix"/>
<feBlend mode="normal" in="SourceGraphic" in2="BackgroundImageFix" result="shape"/>
<feGaussianBlur stdDeviation="2.28568" result="effect1_foregroundBlur_366_569"/>
</filter>
<filter id="filter13_f_366_569" x="130.452" y="33.81" width="560.301" height="754.827" filterUnits="userSpaceOnUse" color-interpolation-filters="sRGB">
<feFlood flood-opacity="0" result="BackgroundImageFix"/>
<feBlend mode="normal" in="SourceGraphic" in2="BackgroundImageFix" result="shape"/>
<feGaussianBlur stdDeviation="2.28568" result="effect1_foregroundBlur_366_569"/>
</filter>
<filter id="filter14_f_366_569" x="122.351" y="41.8178" width="576.511" height="738.616" filterUnits="userSpaceOnUse" color-interpolation-filters="sRGB">
<feFlood flood-opacity="0" result="BackgroundImageFix"/>
<feBlend mode="normal" in="SourceGraphic" in2="BackgroundImageFix" result="shape"/>
<feGaussianBlur stdDeviation="2.28568" result="effect1_foregroundBlur_366_569"/>
</filter>
<filter id="filter15_f_366_569" x="114.25" y="49.8178" width="592.722" height="722.406" filterUnits="userSpaceOnUse" color-interpolation-filters="sRGB">
<feFlood flood-opacity="0" result="BackgroundImageFix"/>
<feBlend mode="normal" in="SourceGraphic" in2="BackgroundImageFix" result="shape"/>
<feGaussianBlur stdDeviation="2.28568" result="effect1_foregroundBlur_366_569"/>
</filter>
<filter id="filter16_f_366_569" x="106.137" y="57.81" width="608.932" height="706.195" filterUnits="userSpaceOnUse" color-interpolation-filters="sRGB">
<feFlood flood-opacity="0" result="BackgroundImageFix"/>
<feBlend mode="normal" in="SourceGraphic" in2="BackgroundImageFix" result="shape"/>
<feGaussianBlur stdDeviation="2.28568" result="effect1_foregroundBlur_366_569"/>
</filter>
<filter id="filter17_f_366_569" x="98.0356" y="65.81" width="625.143" height="689.985" filterUnits="userSpaceOnUse" color-interpolation-filters="sRGB">
<feFlood flood-opacity="0" result="BackgroundImageFix"/>
<feBlend mode="normal" in="SourceGraphic" in2="BackgroundImageFix" result="shape"/>
<feGaussianBlur stdDeviation="2.28568" result="effect1_foregroundBlur_366_569"/>
</filter>
<linearGradient id="paint0_linear_366_569" x1="410.609" y1="167.348" x2="410.609" y2="653.663" gradientUnits="userSpaceOnUse">
<stop stop-color="#341E53"/>
<stop offset="1" stop-color="#1B5952"/>
</linearGradient>
<linearGradient id="paint1_linear_366_569" x1="411.652" y1="159.234" x2="411.652" y2="661.761" gradientUnits="userSpaceOnUse">
<stop stop-color="#341E53"/>
<stop offset="1" stop-color="#1B5952"/>
</linearGradient>
<linearGradient id="paint2_linear_366_569" x1="411.546" y1="151.137" x2="411.546" y2="669.874" gradientUnits="userSpaceOnUse">
<stop stop-color="#341E53"/>
<stop offset="1" stop-color="#1B5952"/>
</linearGradient>
<linearGradient id="paint3_linear_366_569" x1="411.441" y1="143.027" x2="411.441" y2="677.975" gradientUnits="userSpaceOnUse">
<stop stop-color="#341E53"/>
<stop offset="1" stop-color="#1B5952"/>
</linearGradient>
<linearGradient id="paint4_linear_366_569" x1="411.328" y1="134.93" x2="411.328" y2="686.088" gradientUnits="userSpaceOnUse">
<stop stop-color="#341E53"/>
<stop offset="1" stop-color="#1B5952"/>
</linearGradient>
<linearGradient id="paint5_linear_366_569" x1="411.231" y1="126.82" x2="411.231" y2="694.189" gradientUnits="userSpaceOnUse">
<stop stop-color="#341E53"/>
<stop offset="1" stop-color="#1B5952"/>
</linearGradient>
<linearGradient id="paint6_linear_366_569" x1="411.125" y1="118.711" x2="411.125" y2="702.29" gradientUnits="userSpaceOnUse">
<stop stop-color="#341E53"/>
<stop offset="1" stop-color="#1B5952"/>
</linearGradient>
<linearGradient id="paint7_linear_366_569" x1="411.012" y1="110.613" x2="411.012" y2="710.403" gradientUnits="userSpaceOnUse">
<stop stop-color="#341E53"/>
<stop offset="1" stop-color="#1B5952"/>
</linearGradient>
<linearGradient id="paint8_linear_366_569" x1="410.907" y1="102.504" x2="410.907" y2="718.504" gradientUnits="userSpaceOnUse">
<stop stop-color="#341E53"/>
<stop offset="1" stop-color="#1B5952"/>
</linearGradient>
<linearGradient id="paint9_linear_366_569" x1="653.763" y1="410.504" x2="167.447" y2="410.504" gradientUnits="userSpaceOnUse">
<stop stop-color="#341E53"/>
<stop offset="1" stop-color="#1B5952"/>
</linearGradient>
<linearGradient id="paint10_linear_366_569" x1="661.876" y1="411.547" x2="159.35" y2="411.547" gradientUnits="userSpaceOnUse">
<stop stop-color="#341E53"/>
<stop offset="1" stop-color="#1B5952"/>
</linearGradient>
<linearGradient id="paint11_linear_366_569" x1="669.974" y1="411.442" x2="151.237" y2="411.442" gradientUnits="userSpaceOnUse">
<stop stop-color="#341E53"/>
<stop offset="1" stop-color="#1B5952"/>
</linearGradient>
<linearGradient id="paint12_linear_366_569" x1="678.083" y1="411.337" x2="143.136" y2="411.337" gradientUnits="userSpaceOnUse">
<stop stop-color="#341E53"/>
<stop offset="1" stop-color="#1B5952"/>
</linearGradient>
<linearGradient id="paint13_linear_366_569" x1="686.181" y1="411.223" x2="135.023" y2="411.223" gradientUnits="userSpaceOnUse">
<stop stop-color="#341E53"/>
<stop offset="1" stop-color="#1B5952"/>
</linearGradient>
<linearGradient id="paint14_linear_366_569" x1="694.291" y1="411.126" x2="126.922" y2="411.126" gradientUnits="userSpaceOnUse">
<stop stop-color="#341E53"/>
<stop offset="1" stop-color="#1B5952"/>
</linearGradient>
<linearGradient id="paint15_linear_366_569" x1="702.4" y1="411.021" x2="118.821" y2="411.021" gradientUnits="userSpaceOnUse">
<stop stop-color="#341E53"/>
<stop offset="1" stop-color="#1B5952"/>
</linearGradient>
<linearGradient id="paint16_linear_366_569" x1="710.498" y1="410.908" x2="110.708" y2="410.908" gradientUnits="userSpaceOnUse">
<stop stop-color="#341E53"/>
<stop offset="1" stop-color="#1B5952"/>
</linearGradient>
<linearGradient id="paint17_linear_366_569" x1="718.607" y1="410.802" x2="102.607" y2="410.802" gradientUnits="userSpaceOnUse">
<stop stop-color="#341E53"/>
<stop offset="1" stop-color="#1B5952"/>
</linearGradient>
<linearGradient id="paint18_linear_366_569" x1="220.556" y1="183.828" x2="442.85" y2="183.828" gradientUnits="userSpaceOnUse">
<stop stop-color="#150C75"/>
<stop offset="1" stop-color="#21C1C1"/>
</linearGradient>
<linearGradient id="paint19_linear_366_569" x1="403.443" y1="452.172" x2="181.149" y2="452.172" gradientUnits="userSpaceOnUse">
<stop stop-color="#150C75"/>
<stop offset="1" stop-color="#21C1C1"/>
</linearGradient>
<linearGradient id="paint20_linear_366_569" x1="446.172" y1="226.552" x2="446.172" y2="448.846" gradientUnits="userSpaceOnUse">
<stop stop-color="#150C75"/>
<stop offset="1" stop-color="#21C1C1"/>
</linearGradient>
<linearGradient id="paint21_linear_366_569" x1="177.828" y1="409.448" x2="177.828" y2="187.154" gradientUnits="userSpaceOnUse">
<stop stop-color="#150C75"/>
<stop offset="1" stop-color="#21C1C1"/>
</linearGradient>
<linearGradient id="paint22_linear_366_569" x1="525.836" y1="662.024" x2="398.94" y2="535.128" gradientUnits="userSpaceOnUse">
<stop stop-color="#150C75"/>
<stop offset="1" stop-color="#21C1C1"/>
</linearGradient>
<linearGradient id="paint23_linear_366_569" x1="574.618" y1="404.437" x2="701.514" y2="531.333" gradientUnits="userSpaceOnUse">
<stop stop-color="#150C75"/>
<stop offset="1" stop-color="#21C1C1"/>
</linearGradient>
<linearGradient id="paint24_linear_366_569" x1="421.425" y1="508.852" x2="548.32" y2="381.958" gradientUnits="userSpaceOnUse">
<stop stop-color="#150C75"/>
<stop offset="1" stop-color="#21C1C1"/>
</linearGradient>
<linearGradient id="paint25_linear_366_569" x1="679.013" y1="557.628" x2="552.119" y2="684.523" gradientUnits="userSpaceOnUse">
<stop stop-color="#150C75"/>
<stop offset="1" stop-color="#21C1C1"/>
</linearGradient>
<radialGradient id="paint26_radial_366_569" cx="0" cy="0" r="1" gradientUnits="userSpaceOnUse" gradientTransform="translate(556 442.25) rotate(117.564) scale(153.977 136.178)">
<stop stop-color="#1A646E"/>
<stop offset="0.445456" stop-color="#37B9CB"/>
<stop offset="0.839642" stop-color="#1A646E"/>
</radialGradient>
<radialGradient id="paint27_radial_366_569" cx="0" cy="0" r="1" gradientUnits="userSpaceOnUse" gradientTransform="translate(556 442.25) rotate(117.564) scale(153.977 136.178)">
<stop stop-color="#1A646E"/>
<stop offset="0.445456" stop-color="#37B9CB"/>
<stop offset="0.839642" stop-color="#1A646E"/>
</radialGradient>
<radialGradient id="paint28_radial_366_569" cx="0" cy="0" r="1" gradientUnits="userSpaceOnUse" gradientTransform="translate(556 442.25) rotate(117.564) scale(153.977 136.178)">
<stop stop-color="#1A646E"/>
<stop offset="0.445456" stop-color="#37B9CB"/>
<stop offset="0.839642" stop-color="#1A646E"/>
</radialGradient>
<linearGradient id="paint29_linear_366_569" x1="309.797" y1="257.495" x2="309.797" y2="300.695" gradientUnits="userSpaceOnUse">
<stop offset="0.637213" stop-color="#1A646E"/>
<stop offset="1" stop-color="#281740"/>
</linearGradient>
<linearGradient id="paint30_linear_366_569" x1="309.797" y1="257.495" x2="309.797" y2="300.695" gradientUnits="userSpaceOnUse">
<stop offset="0.637213" stop-color="#1A646E"/>
<stop offset="1" stop-color="#281740"/>
</linearGradient>
<linearGradient id="paint31_linear_366_569" x1="309.797" y1="257.495" x2="309.797" y2="300.695" gradientUnits="userSpaceOnUse">
<stop offset="0.637213" stop-color="#1A646E"/>
<stop offset="1" stop-color="#281740"/>
</linearGradient>
<linearGradient id="paint32_linear_366_569" x1="237.197" y1="319.895" x2="237.197" y2="355.895" gradientUnits="userSpaceOnUse">
<stop offset="0.637213" stop-color="#1A646E"/>
<stop offset="1" stop-color="#281740"/>
</linearGradient>
<linearGradient id="paint33_linear_366_569" x1="385.397" y1="353.495" x2="385.397" y2="310.295" gradientUnits="userSpaceOnUse">
<stop offset="0.637213" stop-color="#1A646E"/>
<stop offset="1" stop-color="#281740"/>
</linearGradient>
<linearGradient id="paint34_linear_366_569" x1="385.397" y1="353.495" x2="385.397" y2="310.295" gradientUnits="userSpaceOnUse">
<stop offset="0.637213" stop-color="#1A646E"/>
<stop offset="1" stop-color="#281740"/>
</linearGradient>
<linearGradient id="paint35_linear_366_569" x1="385.397" y1="353.495" x2="385.397" y2="310.295" gradientUnits="userSpaceOnUse">
<stop offset="0.637213" stop-color="#1A646E"/>
<stop offset="1" stop-color="#281740"/>
</linearGradient>
</defs>
</svg>
